<svg width="255.48001098632812" height="76.83095440945671" viewBox="0 0 270 81.19757632100398" class="looka-1j8o68f"><defs id="SvgjsDefs2582"><linearGradient id="SvgjsLinearGradient2587"><stop id="SvgjsStop2588" stop-color="#7f00ff" offset="0" data-darkreader-inline-stopcolor="" style="--darkreader-inline-stopcolor: #6600cc;"></stop><stop id="SvgjsStop2589" stop-color="#e100ff" offset="1" data-darkreader-inline-stopcolor="" style="--darkreader-inline-stopcolor: #b400cc;"></stop></linearGradient><linearGradient id="SvgjsLinearGradient2590"><stop id="SvgjsStop2591" stop-color="#7f00ff" offset="0" data-darkreader-inline-stopcolor="" style="--darkreader-inline-stopcolor: #6600cc;"></stop><stop id="SvgjsStop2592" stop-color="#e100ff" offset="1" data-darkreader-inline-stopcolor="" style="--darkreader-inline-stopcolor: #b400cc;"></stop></linearGradient></defs><g id="SvgjsG2583" featurekey="symbolFeature-0" transform="matrix(20.84237439553296,0,0,20.84237439553296,-2.102498072443717,-8.72701738219471)" fill="url(#SvgjsLinearGradient2587)"><g xmlns="http://www.w3.org/2000/svg"><path fill="url(#SvgjsLinearGradient2587)" d="M1.688,2.857c-0.02,0-0.045-0.004-0.066-0.004C1.595,2.849,1.565,2.845,1.54,2.841   c-0.008-0.005-0.012-0.009-0.02-0.009c-0.01-0.049-0.051-0.078-0.107-0.07C1.31,2.783,1.185,2.799,1.095,2.857   C0.991,2.919,0.896,2.993,0.792,3.052C0.565,3.175,0.329,3.283,0.11,3.42c-0.02,0.012-0.004,0.041,0.018,0.032   C0.554,3.258,1.04,3.2,1.437,2.956C1.521,2.978,1.644,2.939,1.7,2.898C1.718,2.886,1.714,2.857,1.688,2.857z"></path><path fill="url(#SvgjsLinearGradient2587)" d="M4.343,2.65C4.269,2.605,4.198,2.56,4.144,2.489C4.103,2.436,4.032,2.109,3.962,2.08   S3.821,2.188,3.698,2.217c-0.006,0-0.006-0.005-0.01-0.009C3.681,2.196,3.673,2.18,3.655,2.171   c-0.008-0.004-0.012-0.008-0.02-0.012C3.618,2.143,3.606,2.121,3.595,2.105C3.577,2.022,3.388,1.608,3.358,1.526   c-0.016-0.05-0.619,0.413-0.773,0.509C2.466,2.105,2.366,2.212,2.28,2.319c-0.111,0.129-0.26,0.236-0.396,0.335   C1.843,2.684,1.876,2.737,1.921,2.717c0.137-0.07,0.297-0.1,0.445-0.153C2.374,2.56,2.384,2.556,2.396,2.551   C2.362,2.576,2.325,2.602,2.28,2.625C1.884,2.854,1.606,3.221,1.194,3.424c-0.029,0.012-0.01,0.062,0.023,0.053   C1.45,3.402,1.681,3.341,1.913,3.262c0.219-0.074,0.379-0.261,0.549-0.408c0.07-0.066,0.133-0.125,0.189-0.203   c0.037-0.045,0.037-0.1,0.092-0.136c0.041-0.033,0.092-0.046,0.129-0.083C2.94,2.36,2.966,2.271,3.028,2.196   c0.07-0.087,0.131-0.19,0.197-0.281c0.01-0.013,0.014-0.024,0.014-0.037c0.008-0.009,0.016-0.021,0.023-0.029   c-0.016,0.05-0.012,0.104-0.041,0.157C3.192,2.068,3.173,2.13,3.159,2.196c-0.02,0.082-0.049,0.17-0.07,0.252H3.085   c-0.074,0.103-0.172,0.21-0.209,0.335C2.821,2.948,2.78,3.06,2.644,3.184C2.618,3.204,2.651,3.241,2.677,3.225   C2.792,3.142,2.903,3.022,3.032,2.96C3.14,2.907,3.3,2.77,3.358,2.662C3.384,2.621,3.392,2.58,3.399,2.543   c0.006-0.008,0.014-0.017,0.018-0.024c0.049-0.037,0.1-0.07,0.141-0.111c0,0.008,0.004,0.012,0.008,0.02   C3.544,2.46,3.524,2.493,3.517,2.522C3.499,2.588,3.495,2.658,3.476,2.725c-0.021,0.062-0.055,0.12-0.066,0.187   c-0.01,0.062,0.074,0.104,0.107,0.041C3.581,2.816,3.655,2.705,3.8,2.643c0.037-0.018,0.074-0.033,0.104-0.055   C3.925,2.617,3.94,2.646,3.962,2.672c-0.041,0.152-0.07,0.31-0.092,0.466c-0.004,0.009,0,0.013,0.008,0.018   C3.825,3.25,3.772,3.345,3.755,3.452c0,0.013,0.393-0.418,0.447-0.496c0,0.008,0,0.017,0,0.025C4.194,3.006,4.185,3.034,4.19,3.067   l0,0c0,0.004-0.051,0.12-0.059,0.183c0,0.004,0,0.012,0,0.017C4.114,3.32,4.103,3.377,4.095,3.439v0.004l0,0   c0,0.004,0,0.014,0,0.018c-0.004,0.028,0.441-0.199,0.49-0.183C4.618,3.287,4.821,3.41,4.896,3.41   C4.938,3.41,4.495,2.742,4.343,2.65z"></path></g></g><g id="SvgjsG2584" featurekey="nameFeature-0" transform="matrix(2.2432243063430577,0,0,2.2432243063430577,120.03307700425533,-27.500833045525447)" fill="url(#SvgjsLinearGradient2590)"><path d="M9.68 34.16 c0.36 0.32 -0.16 0.6 -0.16 0.6 c-0.48 0.6 -5.08 5.24 -7.76 5.24 c-0.32 0 -0.6 -0.08 -0.84 -0.2 c-0.4 -0.2 -1.04 -0.76 -0.92 -2.16 c0.2 -2 1.96 -4.96 3.8 -5.6 c0.8 -0.28 1.48 -0.24 1.92 0.16 c0.8 0.68 0.08 1.92 0.04 2.08 c0 0 -0.2 0.4 -0.64 0.36 c-0.4 0 -0.68 -0.48 -0.68 -0.48 l0 0 c0.08 -0.32 0.72 -0.92 0.56 -1.08 c-0.16 -0.12 -0.44 -0.08 -0.84 0.04 c-1.24 0.44 -2.84 2.92 -3 4.64 c-0.04 0.36 0 1.2 0.32 1.36 c1.16 0.64 5.92 -2.76 7.28 -4.44 c0 0 0.4 -0.96 0.92 -0.52 z M23.041999999999998 34.36 c0.32 0.32 -0.16 0.6 -0.16 0.6 c-0.36 0.48 -2.92 3.04 -5.32 4.44 c-1.24 0.64 -1.88 0.32 -1.96 0.12 c-0.32 -0.56 0.04 -1.52 0.84 -3.6 c0.2 -0.52 0.48 -1.2 0.6 -1.64 c-0.32 -0.08 -0.88 -0.28 -1.16 -0.44 c-1.72 3.36 -4.48 8.28 -4.64 8.56 c0 0 0.08 0.88 -0.48 0.56 c-0.56 -0.28 0 -0.96 0 -0.96 c1.04 -1.84 3.04 -5.96 4.4 -8.68 c-0.8 -0.6 -1.16 -1.32 -1.08 -2.2 c0.08 -0.8 0.6 -1.52 1.32 -1.8 c0.6 -0.24 1.24 -0.16 1.64 0.2 c0.24 0.24 0.6 0.72 0.36 1.64 c-0.08 0.36 -0.36 0.96 -0.72 1.72 c0.28 0.16 1.44 0.64 1.52 0.8 c0.2 0.44 -0.04 1.04 -0.68 2.68 c-0.24 0.6 -0.68 2 -0.84 2.6 c1.24 -0.12 4.96 -3.48 5.44 -4.08 c0 0 0.36 -0.96 0.92 -0.52 z M16.282 30.84 c0.08 -0.24 0.04 -0.4 0 -0.44 s-0.12 -0.04 -0.2 -0.04 s-0.16 0 -0.24 0.04 c-0.12 0.04 -0.56 0.24 -0.64 0.84 c0 0.28 0.08 0.64 0.48 1.04 c0.32 -0.64 0.52 -1.16 0.6 -1.44 z M37.684 36.36 c0 0 0.2 -0.2 0.48 -0.08 c0.32 0.16 0 0.52 0 0.52 c-1 1.24 -4 3.6 -5.6 3.6 l0 0 c-0.52 0 -0.8 -0.2 -0.96 -0.4 c-0.32 -0.4 -0.52 -1.16 0.44 -3.68 c-3 3.48 -3.96 3.16 -4.28 3.08 c-0.24 -0.08 -0.72 -0.32 -0.76 -1.16 l0 -0.04 c-0.12 -1.68 2.28 -6.52 3.08 -6.48 c0 0 0.6 0.2 0.6 0.48 c-0.04 0.52 -0.36 0.92 -0.6 0.88 c-0.72 -0.4 -2 3.76 -1.96 5.08 c0 0.04 0.04 0.08 0.04 0.12 c0.48 -0.12 1.88 -1.2 4.04 -3.96 c0.68 -0.84 1.16 -1.44 1.48 -1.8 c0.32 -0.4 0.64 -0.8 1.08 -0.44 c0.16 0.12 0.36 0.44 0.12 0.8 c-1.48 2.88 -2.56 5.76 -2.4 6.36 c0.2 0.6 1.24 0.28 2.6 -0.64 c1 -0.68 2.08 -1.6 2.6 -2.24 z M60.846000000000004 12.96 c-0.12 0.32 -12.88 27.72 -14.92 34.28 c-0.12 0.36 0.52 0.6 0.24 1.04 c0 0 -0.36 0.24 -0.92 0.16 c-0.52 -0.12 -0.44 -0.8 -0.44 -0.8 c0.4 -2.08 3.72 -9.96 7.16 -17.76 c-0.88 1.56 -1.68 2.92 -2.28 3.88 c0.08 0.12 0.12 0.32 0.04 0.52 c-0.16 0.36 -0.36 0.32 -0.52 0.24 c-0.08 0.08 -0.16 0.2 -0.24 0.28 l-0.28 0.4 c-1.4 1.8 -2.64 3.36 -3.96 3.48 c-0.04 0.04 -0.12 0.04 -0.2 0.04 c-0.4 0 -0.8 -0.16 -1.16 -0.44 c-0.44 -0.4 -0.6 -1.04 -0.44 -1.88 c0.32 -1.52 1.72 -3.48 3.44 -3.96 c0.64 -0.16 1.56 -0.2 2.48 0.48 c2.56 -4.08 8.8 -15.8 9.16 -16.48 c1 -2.2 1.68 -3.68 1.8 -3.96 c0 0 0.36 -0.36 0.76 -0.16 c0.44 0.2 0.28 0.64 0.28 0.64 z M48.086 34.08 c0.04 -0.04 0.2 -0.32 0.24 -0.36 c-0.32 -0.28 -1.2 -0.52 -1.72 -0.4 c-1.2 0.24 -2.28 2.16 -2.56 3.32 c-0.08 0.4 -0.04 0.68 0.04 0.72 c0.24 0.2 0.4 0.2 0.52 0.2 c0.84 -0.12 2.08 -1.68 3.16 -3.08 z M62.367999999999995 32.92 c-0.2 0.84 -0.56 1.36 -0.88 1.4 c-0.84 0.16 -0.2 -0.96 -0.28 -1.4 c-0.12 -0.64 -1.12 0 -1.12 0.52 c0 0.84 0.32 1.72 1 2.6 l0.12 0.04 c1.8 -1.48 5.4 -2.4 5.44 -2.4 c0 0 0.2 0.04 0.2 0.2 c0.04 0.12 -0.16 0.4 -0.16 0.4 c-1.28 0 -5 2.6 -5.12 2.6 c0.88 1.48 0 3.8 -1.48 4.72 c-0.6 0.52 -1.36 0.84 -2.2 0.96 c-1.04 -0.16 -1.56 -0.48 -1.56 -1 l0 -0.28 c0 -0.8 3.36 -3.92 3.96 -4.4 c0.08 -0.12 0.08 -0.08 0.08 -0.2 c-0.92 -1.32 -1.36 -2.36 -1.36 -3.16 c0.24 -2.84 3.36 -1.64 3.36 -0.6 z M57.488 41.44 l0 0.04 c0 0.12 0.16 0.2 0.4 0.2 c1.04 0 3.6 -2.32 3.08 -3.92 l0.04 -0.36 l-0.24 0.36 c-1.84 1.48 -3.28 3.28 -3.28 3.68 z"></path></g></svg>